<svg xmlns="http://www.w3.org/2000/svg" xmlns:xlink="http://www.w3.org/1999/xlink" version="1.1" x="0px" y="0px" viewBox="0 0 100 100" enable-background="new 0 0 100 100" xml:space="preserve"><g><g><path d="M53.35,90.607c-0.033,0-0.066,0-0.1,0c-0.007-0.057-0.094-0.042-0.095-0.148c0.11-0.145,0.121-0.355,0.093-0.561    c-0.041-0.303-0.088-0.608-0.2-0.895c-0.054-0.138-0.075-0.291-0.168-0.412c0.007-0.25-0.115-0.474-0.138-0.722    c-0.348-0.125-0.513-0.431-0.718-0.692c-0.087-0.111,0.002-0.288-0.113-0.404c-0.018-0.018-0.014-0.068-0.002-0.098    c0.032-0.088,0-0.162-0.04-0.234c-0.151-0.283-0.223-0.59-0.263-0.904c-0.038-0.303-0.18-0.573-0.308-0.833    c-0.141-0.288-0.304-0.571-0.47-0.849c-0.103-0.172-0.18-0.356-0.231-0.56c-0.089-0.361-0.189-0.723-0.371-1.055    c-0.055-0.1-0.117-0.174-0.21-0.229c-0.01-0.005-0.029,0.005-0.045,0.008c-0.003,0.06,0.08,0.085,0.052,0.166    c0.011,0.063-0.1,0.035-0.103,0.099c0.01,0.028,0.027,0.052,0.026,0.074c-0.001,0.041-0.01,0.083-0.021,0.122    c-0.016,0.055-0.044,0.107-0.055,0.164c-0.091,0.484-0.181,0.969-0.175,1.465c0.001,0.058,0.008,0.13-0.047,0.16    c-0.104,0.053-0.096,0.143-0.111,0.232c-0.028,0.161-0.064,0.322-0.099,0.483c-0.099,0.461-0.209,0.919-0.268,1.389    c-0.013,0.104-0.068,0.197-0.083,0.308c-0.04,0.299,0.001,0.599-0.061,0.902c-0.093,0.456-0.062,0.477-0.236,0.778    c-0.112,0.191-0.273,0.237-0.481,0.13c-0.032-0.016-0.059-0.009-0.108-0.013c0.05-0.087-0.024-0.177,0.019-0.264    c0.043-0.085-0.001-0.185,0.055-0.265c0.021-0.029,0.025-0.065,0.011-0.095c-0.057-0.118-0.03-0.246-0.05-0.368    c-0.076-0.442-0.01-0.873,0.072-1.305c0.184-0.13,0.439-0.042,0.618-0.217c-0.214-0.017-0.407,0.104-0.616,0.011    c0.146-0.157-0.074-0.269-0.046-0.425c0.026-0.138,0.008-0.286-0.053-0.424c-0.062-0.142-0.109-0.291-0.157-0.419    c0.021-0.062,0.089-0.059,0.076-0.115c-0.017-0.032-0.044-0.006-0.082-0.02c0.012-0.133-0.052-0.279,0.062-0.404    c-0.028-0.023-0.071-0.043-0.06-0.077c0.045-0.124,0.006-0.251,0.035-0.377c0.053-0.233,0.067-0.462,0.024-0.708    c-0.082-0.456-0.107-0.92-0.064-1.388c0.017-0.181,0.002-0.364,0.081-0.536c0.036-0.079,0.034-0.173,0.009-0.246    c-0.046-0.137-0.048-0.278-0.067-0.416c-0.041-0.279-0.135-0.554-0.072-0.842c0.007-0.031,0.001-0.07-0.013-0.098    c-0.064-0.119-0.036-0.243-0.032-0.366c0.005-0.154,0.055-0.305,0.061-0.455c0.009-0.261,0.007-0.518,0.125-0.732    c0-0.099-0.082-0.13-0.091-0.2c-0.006-0.045,0.016-0.108-0.047-0.129c-0.081-0.027,0.095-0.086-0.019-0.116    c-0.038-0.01-0.059-0.076-0.09-0.115c-0.034-0.041-0.065-0.095-0.038-0.136c0.061-0.09-0.083-0.101-0.055-0.164    c0.035-0.08,0.005-0.135-0.038-0.2c-0.028-0.042-0.051-0.101-0.034-0.15c0.152-0.117,0.299-0.226,0.441-0.339    c0.033-0.026,0.097-0.048,0.052-0.114c-0.231,0.077-0.416,0.24-0.632,0.328c-0.052-0.03-0.103-0.041-0.127-0.089    c0.058-0.259-0.056-0.472-0.18-0.681c-0.108-0.002-0.131-0.008-0.248-0.066c-0.117,0.254-0.219,0.518-0.355,0.761    c-0.251,0.449-0.494,0.901-0.702,1.371c-0.04,0.091-0.079,0.181-0.132,0.264c-0.086,0.131-0.102,0.3-0.226,0.41    c0.044,0.189-0.101,0.282-0.204,0.393c-0.047,0.051-0.076,0.109-0.109,0.166c-0.155,0.263-0.326,0.514-0.524,0.749    c-0.089,0.105-0.225,0.196-0.245,0.355c-0.003,0.021-0.022,0.042-0.032,0.061c-0.046,0.007-0.087,0.014-0.127,0.021    c-0.018,0.051-0.003,0.116-0.061,0.144c-0.146,0.07-0.242,0.241-0.445,0.195c-0.054,0.154-0.184,0.222-0.307,0.285    c-0.196,0.1-0.405,0.171-0.59,0.297c-0.095,0.064-0.208,0.1-0.326,0.115c-0.029,0.004-0.06-0.009-0.089-0.014    c-0.014,0.035-0.025,0.065-0.035,0.091c-0.065,0.059-0.168-0.01-0.213,0.059c-0.101,0.156-0.283,0.141-0.423,0.214    c-0.189,0.1-0.414,0.104-0.613,0.204c-0.044-0.058-0.087-0.118-0.171-0.114c-0.005,0.077,0.14,0.091,0.065,0.188    c-0.162,0.006-0.332,0-0.43,0.173c-0.008,0.012-0.03,0.025-0.043,0.023c-0.056-0.008-0.103-0.06-0.167-0.041    c-0.065,0.021-0.048,0.114-0.146,0.132c-0.133,0.026-0.255,0.019-0.384-0.013c-0.132,0.168-0.352,0.193-0.503,0.327    c-0.061,0.054-0.137,0.095-0.213,0.127c-0.119,0.049-0.212,0.132-0.294,0.226c-0.146,0.166-0.312,0.302-0.516,0.39    c-0.012,0.005-0.018,0.025-0.028,0.042c0.007,0.021,0.015,0.044,0.031,0.089c-0.183,0.129-0.305,0.349-0.554,0.415    c-0.042,0.011-0.085,0.056-0.111,0.096c-0.092,0.144-0.221,0.214-0.378,0.202c-0.079,0.05-0.029,0.176-0.131,0.184    c-0.114,0.008-0.146,0.194-0.289,0.125c-0.102,0.07-0.177,0.176-0.295,0.227c-0.015,0.007-0.026,0.023-0.042,0.027    c-0.265,0.073-0.494,0.229-0.741,0.342c-0.375,0.169-0.756,0.325-1.14,0.465c-0.371,0.136-0.764,0.224-1.166,0.226    c-0.181,0.001-0.371-0.035-0.542-0.014c-0.352,0.041-0.67-0.073-0.999-0.139c-0.062-0.014-0.125-0.002-0.177-0.021    c-0.038-0.031-0.014-0.089-0.066-0.101c-0.188,0.023-0.361-0.054-0.441-0.197c-0.05,0.083-0.115,0.095-0.181,0.026    c-0.092-0.096-0.18-0.196-0.264-0.299c-0.269-0.335-0.571-0.656-0.562-1.131c0-0.008-0.007-0.017-0.007-0.024    c0.004-0.181-0.092-0.361-0.033-0.542c0.066-0.201-0.012-0.348-0.128-0.504c-0.173-0.231-0.395-0.408-0.617-0.579    c-0.414-0.318-0.75-0.706-1.072-1.11c-0.4-0.502-0.737-1.045-1.091-1.579c-0.134-0.203-0.239-0.418-0.318-0.646    c-0.043-0.126-0.087-0.251-0.137-0.375c-0.261-0.649-0.41-1.329-0.571-2.007c-0.062-0.26-0.062-0.561-0.377-0.664    c-0.059-0.218-0.035-0.417-0.031-0.62c0.008-0.356,0.078-0.7,0.141-1.044c0.06-0.327,0.07-0.667,0.229-0.971    c0.012-0.021,0.03-0.042,0.015-0.07c-0.038-0.067,0.004-0.125,0.014-0.19c0.034-0.214,0.151-0.403,0.188-0.613    c0.042-0.234,0.147-0.439,0.232-0.654c0.089-0.224,0.189-0.443,0.261-0.673c0.054-0.175,0.147-0.333,0.229-0.497    c0.162-0.326,0.338-0.653,0.443-0.999c0.099-0.324,0.266-0.606,0.422-0.895c0.203-0.376,0.388-0.765,0.648-1.112    c0.217-0.291,0.361-0.634,0.59-0.92c0.017-0.021,0.043-0.05,0.016-0.104c-0.12,0.058-0.251,0.08-0.385,0.104    c-0.269,0.049-0.539,0.014-0.807,0.04c-0.132,0.013-0.266,0.025-0.395,0.027c-0.143,0.002-0.235,0.061-0.343,0.122    c-0.034,0.02-0.083,0.015-0.117-0.017c0.005-0.059,0.069-0.104,0.033-0.194c-0.024,0.185-0.22,0.127-0.291,0.246    c-0.167-0.113-0.418,0.062-0.555-0.163c0.079-0.155,0.084-0.17,0.059-0.199c-0.046-0.025-0.094-0.018-0.141,0.003    c0.038,0.088,0.003,0.155-0.067,0.218c-0.229,0.059-0.424-0.068-0.627-0.123c-0.021-0.059-0.039-0.104-0.054-0.143    c-0.097,0.02-0.203,0.093-0.232-0.076c0.024-0.002,0.049-0.003,0.072-0.004c0.011-0.109,0.011-0.109-0.02-0.197    c-0.069,0.064-0.046,0.138-0.044,0.208c-0.073,0.015-0.042,0.106-0.099,0.131c-0.16,0.025-0.268-0.05-0.338-0.18    c-0.122,0.016-0.236-0.002-0.336,0.071c-0.036,0.024-0.098,0.009-0.147,0.012c-0.1,0.007-0.203,0-0.297,0.025    c-0.125,0.034-0.247,0.035-0.372,0.037c-0.258,0.005-0.415-0.129-0.512-0.348c0.14-0.184,0.141-0.184,0.325-0.271    c0.044-0.021,0.083-0.046,0.12-0.082c0.214-0.204,0.421-0.415,0.652-0.597c0.403-0.317,0.832-0.604,1.231-0.928    c0.203-0.165,0.414-0.332,0.571-0.549c0.181-0.25,0.364-0.497,0.597-0.702c0.005-0.005,0.013-0.01,0.017-0.018    c0.211-0.349,0.503-0.638,0.791-0.913c0.281-0.269,0.523-0.569,0.803-0.839c0.444-0.425,0.895-0.844,1.348-1.26    c0.132-0.122,0.292-0.229,0.406-0.359c0.18-0.203,0.392-0.356,0.593-0.527c0.43-0.364,0.863-0.722,1.265-1.119    c0.117-0.115,0.217-0.245,0.339-0.355c0.169-0.152,0.329-0.318,0.484-0.485c0.236-0.254,0.399-0.568,0.638-0.823    c0.028-0.029,0.044-0.071,0.058-0.11c0.083-0.23,0.25-0.431,0.234-0.699c-0.003-0.067,0.053-0.137,0.077-0.207    c0.012-0.038,0.051-0.071,0.031-0.116c-0.03-0.07-0.029-0.129,0.05-0.166c-0.004-0.173,0.165-0.281,0.169-0.458    c0.001-0.068,0.02-0.136,0.011-0.211c-0.012-0.108,0.016-0.215,0.119-0.254c-0.027-0.251,0.047-0.448,0.261-0.583    c-0.026-0.025-0.044-0.042-0.074-0.068c0.077-0.06,0.165-0.114,0.176-0.224c-0.026-0.028-0.054-0.056-0.078-0.083    c0.006-0.035,0.011-0.068,0.018-0.099c0.031-0.14,0.005-0.292,0.133-0.41c0.037-0.034,0.057-0.152,0.049-0.221    c-0.017-0.15,0.019-0.279,0.095-0.398c0.033-0.054,0.036-0.108,0.052-0.163c0.061-0.193,0.043-0.413,0.19-0.58    c0.02-0.023,0.028-0.061,0.031-0.093c0.018-0.197,0.097-0.379,0.164-0.559c0.105-0.285,0.198-0.575,0.311-0.857    c0.071-0.176,0.126-0.355,0.172-0.542c0.087-0.352,0.217-0.693,0.291-1.05c0.025-0.124,0.109-0.234,0.125-0.367    c0.016-0.139,0.039-0.278,0.072-0.414c0.033-0.143,0.051-0.294,0.162-0.375c-0.038-0.231,0.053-0.413,0.116-0.598    c0.032-0.097,0.088-0.186,0.112-0.284c0.07-0.305,0.106-0.619,0.287-0.891c0.042-0.064,0.042-0.157,0.06-0.237    c0.013-0.057,0.015-0.116,0.032-0.171c0.171-0.535,0.347-1.069,0.517-1.604c0.048-0.152,0.157-0.283,0.187-0.433    c0.05-0.264,0.194-0.487,0.271-0.741c0.127-0.415,0.333-0.807,0.507-1.208c0.105-0.242,0.204-0.487,0.311-0.728    c0.108-0.241,0.185-0.494,0.312-0.728c0.11-0.202,0.185-0.423,0.266-0.64c0.092-0.244,0.17-0.495,0.262-0.738    c0.092-0.246,0.241-0.463,0.338-0.708c0.127-0.319,0.301-0.619,0.446-0.931c0.043-0.092,0.12-0.157,0.157-0.25    c0.136-0.336,0.271-0.672,0.462-0.982c0.188-0.311,0.296-0.666,0.505-0.966c0.213-0.306,0.384-0.637,0.587-0.949    c0.184-0.284,0.39-0.549,0.589-0.82c0.221-0.297,0.474-0.571,0.709-0.858c0.418-0.51,0.819-1.036,1.312-1.479    c0.044-0.039,0.075-0.087,0.103-0.139c0.027-0.051,0.057-0.113,0.103-0.138c0.189-0.104,0.295-0.282,0.427-0.438    c0.053-0.064,0.11-0.126,0.176-0.177c0.337-0.265,0.606-0.602,0.943-0.872c0.211-0.169,0.414-0.355,0.632-0.519    c0.371-0.279,0.743-0.556,1.119-0.829c0.348-0.254,0.7-0.503,1.052-0.75c0.105-0.074,0.201-0.157,0.233-0.282    c0.035-0.134,0.075-0.268,0.101-0.403c0.086-0.445,0.166-0.892,0.286-1.331c0.005-0.022,0.005-0.047,0.006-0.07    c0.009-0.206,0-0.413,0.031-0.615c0.041-0.274,0.045-0.543,0.009-0.817c-0.018-0.13-0.014-0.264-0.007-0.396    c0.002-0.039,0.086-0.072,0.004-0.118c0.036-0.133-0.041-0.252-0.057-0.378c-0.04-0.296,0.005-0.589-0.012-0.882    c-0.011-0.188-0.06-0.357-0.146-0.519c-0.094-0.176-0.196-0.347-0.297-0.519c-0.182-0.303-0.357-0.61-0.579-0.89    c-0.099-0.124-0.219-0.229-0.309-0.357c-0.189-0.272-0.454-0.433-0.766-0.524c-0.382-0.111-0.769-0.21-1.148-0.33    c-0.506-0.161-1.007-0.336-1.524-0.463c-0.563-0.138-1.122-0.296-1.679-0.463c-0.715-0.213-1.45-0.35-2.17-0.547    c-0.471-0.13-0.951-0.23-1.433-0.307c-0.214-0.034-0.421-0.108-0.631-0.135c-0.358-0.047-0.685-0.186-1.023-0.286    c-0.042-0.012-0.1-0.029-0.093-0.111c0.27-0.122,0.546-0.246,0.841-0.378c-0.083-0.043-0.14-0.036-0.196-0.019    c-0.346,0.105-0.656,0.28-0.923,0.522c-0.183,0.166-0.341,0.358-0.54,0.517c-0.128-0.146-0.095-0.321-0.139-0.474    c0.104-0.415,0.173-0.844,0.463-1.188c0.015-0.018,0.026-0.046,0.024-0.068c-0.014-0.133,0.074-0.208,0.148-0.299    c0.119-0.15,0.288-0.231,0.429-0.353c-0.015-0.018-0.032-0.04-0.05-0.062c0.02-0.037,0.029-0.087,0.06-0.107    c0.208-0.138,0.355-0.345,0.55-0.495c0.068-0.051,0.133-0.097,0.175-0.17c0.027-0.045,0.062-0.085,0.115-0.088    c0.07-0.002,0.11-0.047,0.137-0.096c0.05-0.093,0.138-0.143,0.217-0.198c0.17-0.119,0.349-0.224,0.521-0.34    c0.298-0.2,0.629-0.333,0.942-0.504c0.355-0.194,0.761-0.263,1.142-0.395c0.14-0.048,0.287-0.077,0.422-0.142    c0.036-0.019,0.08-0.021,0.12-0.029c0.275-0.052,0.548-0.106,0.832-0.123c0.359-0.022,0.72-0.03,1.079-0.062    c0.136-0.012,0.276,0.011,0.406-0.034c0.041-0.131-0.023-0.262,0.046-0.38c0.084-0.019,0.158,0.008,0.24,0.029    c0.268,0.073,0.509,0.211,0.785,0.275c0.488,0.113,0.979,0.142,1.472,0.131c0.287-0.005,0.575-0.031,0.865-0.033    c0.215-0.001,0.43-0.013,0.642,0.042c0.273-0.083,0.556-0.034,0.833-0.045c0.222-0.008,0.398-0.065,0.568-0.203    c0.304-0.247,0.605-0.494,0.972-0.65c0.267-0.114,0.546-0.199,0.812-0.314c0.203-0.088,0.413-0.115,0.627-0.145    c0.231-0.031,0.463-0.037,0.695-0.05c0.301-0.018,0.603-0.052,0.906-0.028c0.064,0.005,0.126,0.01,0.193,0.004    c0.313-0.029,0.632,0.006,0.945-0.06c0.023-0.005,0.049,0,0.074,0.004c0.196,0.031,0.393,0.042,0.59,0.036    c0.557-0.02,1.103,0.042,1.634,0.214c0.214,0.07,0.423,0.135,0.652,0.152c0.236,0.019,0.476,0.071,0.684,0.197    c0.263,0.16,0.549,0.276,0.814,0.43c0.135,0.078,0.266,0.163,0.397,0.249c0.262,0.171,0.523,0.345,0.785,0.518    c0.263,0.173,0.541,0.323,0.798,0.507c0.258,0.184,0.494,0.392,0.739,0.591c0.257,0.209,0.501,0.431,0.745,0.654    c0.299,0.275,0.586,0.564,0.897,0.826c0.324,0.272,0.577,0.603,0.781,0.961c0.199,0.348,0.413,0.692,0.548,1.074    c0.097,0.271,0.337,0.45,0.46,0.706c0.18,0.106,0.254,0.309,0.412,0.445c0.153,0.131,0.277,0.306,0.417,0.459    c0.116,0.127,0.227,0.262,0.351,0.383c0.122,0.12,0.245,0.247,0.389,0.335c0.139,0.085,0.186,0.278,0.372,0.301    c0.02,0.003,0.038,0.032,0.054,0.051c0.116,0.14,0.23,0.282,0.349,0.42c0.141,0.164,0.265,0.342,0.423,0.491    c0.333,0.314,0.606,0.685,0.955,0.985c0.064,0.055,0.112,0.135,0.134,0.231c0.021,0.09-0.081,0.104-0.067,0.171    c-0.234,0.044-0.442-0.03-0.643-0.137c-0.059-0.031-0.122-0.055-0.179-0.088c-0.075-0.044-0.143,0.045-0.264-0.017    c-0.042-0.017-0.061-0.121-0.146-0.195c-0.083-0.004-0.188-0.014-0.242-0.113c-0.062-0.11-0.162-0.11-0.278-0.134    c0.016,0.048,0.018,0.073,0.03,0.092c0.089,0.151,0.241,0.257,0.333,0.4c0.218,0.343,0.526,0.596,0.803,0.881    c0.115,0.119,0.248,0.221,0.366,0.336c0.231,0.227,0.469,0.448,0.683,0.689c0.19,0.217,0.384,0.439,0.519,0.691    c0.171,0.321,0.343,0.643,0.54,0.948c0.326,0.505,0.417,1.08,0.557,1.65c-0.133,0.009-0.177-0.103-0.274-0.132    c-0.096-0.029-0.199-0.107-0.25-0.193c-0.083-0.138-0.194-0.22-0.332-0.286c-0.043-0.021-0.087-0.061-0.106-0.103    c-0.07-0.156-0.216-0.244-0.325-0.365c-0.212-0.234-0.422-0.469-0.63-0.707c-0.102-0.117-0.231-0.197-0.358-0.313    c-0.101,0.212,0.053,0.341,0.074,0.496c0.093-0.007,0.055-0.087,0.104-0.122c0.008,0.068,0.006,0.133,0.024,0.192    c0.022,0.069,0.062,0.134,0.095,0.202c-0.035,0.045-0.059,0.089-0.036,0.17c0.001,0.01,0.042,0.013,0.064,0.037    c0.058,0.064,0.025,0.186,0.147,0.213c0.031,0.007,0.024,0.075,0.016,0.116c-0.012,0.064-0.087,0.035-0.118,0.074    c0.088,0.054,0.078,0.207,0.22,0.2c-0.016,0.058-0.028,0.104-0.032,0.119c0.241,0.422,0.5,0.801,0.639,1.233    c0.03,0.037,0.066-0.028,0.083,0.009c0.015,0.065-0.058,0.058-0.063,0.105c0.029,0.008,0.061,0.017,0.093,0.025    c0.009,0.123,0.059,0.241,0.122,0.335c0.046,0.067-0.007,0.148,0.038,0.173c0.151,0.088,0.187,0.252,0.267,0.381    c0.101,0.162,0.206,0.292,0.394,0.357c0.082,0.028,0.172,0.069,0.238,0.14c0.245,0.268,0.581,0.436,0.803,0.725    c0.152,0.197,0.385,0.284,0.557,0.448c0.205,0.198,0.446,0.371,0.525,0.673c0.027,0.104,0.1,0.191,0.193,0.253    c0.099,0.066,0.162,0.161,0.229,0.258c0.237,0.344,0.358,0.744,0.542,1.113c0.132,0.265,0.231,0.55,0.334,0.83    c0.178,0.49,0.359,0.978,0.528,1.472c0.117,0.342,0.178,0.684,0.225,1.037c0.031,0.223,0.025,0.447,0.055,0.669    c0.041,0.308,0.106,0.611,0.118,0.924c0.018,0.479,0.115,0.954,0.131,1.435c0.008,0.243,0.048,0.483,0.057,0.727    c0.009,0.248,0.074,0.493,0.077,0.74c0.003,0.341,0.07,0.678,0.061,1.018c-0.009,0.365,0.034,0.734-0.062,1.093    c-0.014,0.05-0.007,0.095-0.001,0.145c0.013,0.115,0.012,0.231-0.029,0.345c-0.023,0.067-0.024,0.143-0.035,0.216    c-0.024,0.185-0.07,0.367-0.034,0.556c0.008,0.042-0.033,0.092-0.041,0.141c-0.023,0.139-0.06,0.28-0.056,0.418    c0.008,0.274,0.004,0.544-0.03,0.815c-0.044,0.336-0.076,0.674-0.116,1.01c-0.021,0.173-0.044,0.345-0.076,0.516    c-0.085,0.455-0.213,0.902-0.263,1.363c-0.01,0.087-0.081,0.142-0.082,0.226c-0.003,0.291-0.092,0.566-0.171,0.84    c-0.033,0.116-0.014,0.246-0.083,0.351c-0.093,0.143-0.127,0.304-0.179,0.462c-0.117,0.362-0.237,0.724-0.357,1.084    c-0.075,0.226-0.177,0.446-0.223,0.678c-0.036,0.188-0.115,0.347-0.207,0.502c-0.06,0.099-0.135,0.193-0.177,0.299    c-0.119,0.301-0.354,0.529-0.493,0.82c-0.133,0.281-0.334,0.53-0.489,0.801c-0.057,0.1-0.176,0.155-0.192,0.273    c-0.019,0.131-0.146,0.18-0.196,0.282c-0.158,0.315-0.398,0.571-0.622,0.835c-0.18,0.21-0.37,0.438-0.692,0.441    c-0.031,0-0.061,0.026-0.093,0.037c-0.15,0.054-0.289,0-0.431-0.045c-0.118-0.038-0.169-0.12-0.191-0.236    c-0.011-0.055-0.085-0.082-0.083-0.138c0.015-0.089,0.028-0.168,0.041-0.244c-0.04-0.047-0.059-0.108-0.138-0.114    c-0.048,0.071-0.108,0.142-0.145,0.223c-0.104,0.223-0.224,0.435-0.342,0.65c-0.192,0.353-0.449,0.636-0.739,0.902    c-0.074,0.069-0.144,0.136-0.255,0.112c0.007,0.176-0.053,0.294-0.213,0.353c-0.094,0.035-0.167,0.076-0.218,0.157    c-0.063,0.099-0.151,0.153-0.264,0.144c-0.005,0.048,0.058,0.038,0.048,0.077c-0.066,0.069-0.123,0.143-0.194,0.199    c-0.237,0.182-0.466,0.372-0.677,0.585c-0.108,0.11-0.186,0.255-0.346,0.308c-0.015,0.004-0.026,0.021-0.036,0.034    c-0.143,0.217-0.363,0.359-0.552,0.523c-0.227,0.197-0.414,0.428-0.626,0.636c-0.269,0.266-0.488,0.582-0.75,0.854    c-0.116,0.122-0.195,0.266-0.305,0.39c-0.202,0.229-0.41,0.456-0.585,0.709c-0.161,0.231-0.331,0.456-0.504,0.677    c-0.033,0.041-0.052,0.08-0.069,0.126c-0.088,0.243-0.271,0.428-0.392,0.652c-0.034,0.063-0.103,0.107-0.157,0.16    c-0.023,0.022-0.068,0.034-0.075,0.058c-0.058,0.206-0.209,0.357-0.312,0.536c-0.127,0.222-0.267,0.436-0.391,0.659    c-0.07,0.127-0.172,0.163-0.306,0.168c-0.144,0.007-0.275-0.046-0.358-0.14c-0.098-0.112-0.112-0.28-0.08-0.421    c0.037-0.161,0.174-0.292,0.154-0.474c0.095-0.066,0.067-0.189,0.122-0.269c0.065-0.094-0.043-0.235,0.096-0.298    c-0.055-0.109,0.069-0.214,0.018-0.331c-0.072,0.013-0.136,0.017-0.155,0.102c-0.015,0.064-0.025,0.137-0.063,0.187    c-0.219,0.298-0.41,0.614-0.616,0.918c-0.256,0.377-0.468,0.781-0.719,1.16c-0.148,0.222-0.291,0.447-0.492,0.624    c-0.349,0.307-0.709,0.598-1.108,0.842c-0.17,0.104-0.33,0.186-0.532,0.131c0.018-0.019,0.034-0.036,0.052-0.055    c-0.021-0.056-0.065-0.091-0.114-0.118c-0.068-0.007-0.135,0.094-0.212-0.018c0.167-0.093,0.262-0.239,0.299-0.424    c0.007-0.031,0.025-0.066,0.048-0.084c0.138-0.107,0.184-0.274,0.292-0.422c-0.128-0.01-0.167-0.105-0.197-0.195    c-0.099,0.009-0.038,0.101-0.09,0.126c-0.144-0.044-0.139-0.034-0.248,0.019c-0.211,0.1-0.297,0.306-0.426,0.476    c-0.089,0.118-0.136,0.26-0.22,0.384c-0.133,0.196-0.323,0.335-0.465,0.518c-0.062,0.081-0.123,0.122-0.216,0.133    c-0.007,0-0.012,0.025-0.018,0.039c0.031,0.033,0.125-0.018,0.108,0.081c-0.057,0.108-0.25,0.012-0.269,0.179    c0.027,0.149,0.099,0.271,0.226,0.36c-0.004,0.071-0.022,0.153,0.047,0.199c0.076,0.047,0.073,0.127,0.107,0.191    c0.107,0.201,0.194,0.417,0.319,0.605c0.091,0.136,0.175,0.276,0.259,0.415c0.132,0.216,0.258,0.432,0.424,0.625    c0.141,0.161,0.266,0.336,0.397,0.505c-0.028,0.123,0.146,0.123,0.142,0.233c-0.006,0.133,0.121,0.164,0.195,0.224    c0.205,0.168,0.36,0.381,0.555,0.559c0.164,0.148,0.333,0.295,0.481,0.458c0.149,0.165,0.316,0.313,0.457,0.487    c0.07,0.086,0.143,0.177,0.233,0.253c0.208,0.176,0.392,0.379,0.601,0.555c0.086,0.073,0.151,0.172,0.223,0.261    c0.099,0.123,0.256,0.203,0.397,0.287c0.129,0.077,0.244,0.164,0.326,0.299c-0.167,0.073-0.328,0.184-0.5,0.211    c-0.264,0.042-0.378,0.205-0.425,0.424c-0.031,0.14-0.095,0.224-0.209,0.287c-0.033,0.019-0.073,0.029-0.08,0.078    c0.304-0.083,0.309-0.081,0.397-0.337c0.043-0.126,0.106-0.239,0.236-0.269c0.148-0.034,0.275-0.109,0.414-0.16    c0.106-0.038,0.217-0.09,0.346-0.056c0.038,0.079,0.12,0.131,0.167,0.207c0.045,0.075,0.144,0.115,0.13,0.238    c-0.009,0.08,0.116,0.131,0.105,0.23c-0.112,0.057-0.112,0.057-0.062,0.173c0.128-0.138,0.258-0.131,0.389-0.007    c0.029,0.027,0.074,0.05,0.112,0.051c0.14,0.001,0.214,0.099,0.299,0.185c0.041,0.04,0.09,0.071,0.134,0.106    c0.021,0.046-0.009,0.102,0.033,0.141c0.164-0.076,0.192,0.126,0.328,0.135c-0.101,0.069-0.196,0.047-0.282,0.067    c-0.038,0.009-0.082-0.003-0.123-0.009c-0.355-0.051-0.694,0.015-1.024,0.14c-0.123,0.046-0.235,0.123-0.356,0.179    c-0.125,0.057-0.181,0.191-0.281,0.256c-0.062-0.002-0.089-0.035-0.122-0.061c-0.122-0.097-0.236-0.21-0.371-0.284    c-0.351-0.193-0.675-0.416-0.938-0.724c-0.075-0.089-0.16-0.173-0.254-0.242c-0.195-0.142-0.344-0.329-0.506-0.501    c-0.042-0.046-0.079-0.109-0.133-0.149c-0.274-0.206-0.568-0.378-0.865-0.55c-0.277-0.159-0.553-0.333-0.728-0.611    c-0.239,0.031-0.215-0.191-0.298-0.313c-0.02,0.024-0.035,0.042-0.052,0.061c-0.211-0.178-0.367-0.409-0.564-0.601    c-0.077-0.074-0.146-0.161-0.22-0.233c-0.15-0.149-0.199-0.365-0.364-0.498c-0.062-0.05-0.107-0.12-0.172-0.164    c-0.074-0.051-0.027-0.115-0.036-0.169c-0.039-0.02-0.103-0.006-0.109-0.05c-0.013-0.078-0.077-0.101-0.119-0.148    c-0.246-0.284-0.614-0.453-0.773-0.818c-0.18-0.074-0.207-0.27-0.318-0.397c-0.025-0.03-0.039-0.063-0.082-0.083    c-0.216-0.095-0.328-0.214-0.366-0.412c-0.015-0.073-0.046-0.119-0.092-0.167c-0.068-0.076-0.145-0.14-0.238-0.179    c-0.082-0.034-0.129-0.092-0.176-0.166c-0.081-0.128-0.072-0.292-0.187-0.412c0.042-0.035,0.096-0.058,0.077-0.142    c-0.154-0.107-0.087-0.283-0.074-0.441c0.021-0.254,0.081-0.507,0.087-0.762c0.006-0.258,0.06-0.51,0.071-0.767    c0.012-0.284,0.043-0.567,0.065-0.844c-0.064-0.04-0.112-0.071-0.162-0.101c0.017-0.016,0.035-0.031,0.052-0.045    c0.011-0.087-0.086-0.141-0.068-0.232c0.001-0.064,0.099-0.09,0.075-0.173c-0.265-0.019-0.529-0.02-0.768,0.116    c-0.289,0.163-0.589,0.308-0.884,0.458c-0.317,0.162-0.646,0.301-0.922,0.537c-0.101,0.087-0.184,0.197-0.3,0.261    c-0.118,0.065-0.182,0.166-0.23,0.283c-0.093,0.223-0.191,0.442-0.274,0.668c-0.164,0.442-0.332,0.88-0.527,1.311    c-0.214,0.473-0.377,0.969-0.589,1.444c-0.067,0.151-0.095,0.324-0.167,0.466c-0.17,0.333-0.265,0.693-0.408,1.034    c-0.112,0.265-0.194,0.546-0.3,0.816c-0.085,0.215-0.161,0.434-0.261,0.642c-0.03,0.063-0.05,0.134-0.035,0.179    c0.027,0.081,0.001,0.141-0.014,0.214c-0.026,0.124-0.062,0.257-0.01,0.378c0.061,0.141,0.109,0.271,0.123,0.433    c0.014,0.165,0.114,0.327,0.101,0.508c0.102,0.065,0.075,0.17,0.085,0.265c0.002,0.016,0.009,0.032,0.014,0.049    c0.041,0.051,0.082,0.102,0.133,0.166c-0.028,0.122,0.006,0.234,0.087,0.34c0.04,0.051,0.085,0.12,0.082,0.177    c-0.005,0.086,0.026,0.134,0.077,0.192c0.082,0.094,0.084,0.215,0.087,0.334c0.065,0.026,0.135,0.077,0.139,0.132    c0.006,0.079,0.006,0.142,0.082,0.186c0.076,0.044,0.01,0.16,0.105,0.211c0.044,0.024,0.09,0.14,0.07,0.171    c-0.082,0.122,0.077,0.195,0.04,0.299c0.099,0.092,0.077,0.227,0.123,0.332c-0.054,0.073-0.131,0.091-0.193,0.13    c-0.183,0.116-0.368,0.228-0.547,0.348c-0.117,0.078-0.217,0.174-0.253,0.332c0.616-0.365,0.984-0.541,1.183-0.565    c0.204,0.283,0.408,0.569,0.624,0.869c-0.064,0.011-0.104,0.017-0.145,0.025c-0.322,0.063-0.622,0.172-0.874,0.396    c-0.169,0.151-0.31,0.325-0.44,0.508c-0.065,0.092-0.131,0.195-0.08,0.34c0.171-0.242,0.372-0.438,0.578-0.629    c0.173-0.162,0.372-0.278,0.607-0.324c0.282-0.056,0.557-0.137,0.854-0.1c0.227,0.029,0.462-0.011,0.69,0.012    c0.401,0.04,0.792,0.143,1.189,0.263c-0.037,0.079-0.067,0.155-0.107,0.227c-0.073,0.132-0.124,0.274-0.159,0.418    c-0.03,0.124-0.077,0.259,0.06,0.382c0.132-0.338,0.212-0.692,0.461-0.953c0.279,0.053,0.528,0.165,0.824,0.178    c-0.14,0.301-0.31,0.573-0.247,0.912c0.11-0.304,0.175-0.619,0.453-0.821c0.057,0.028,0.109,0.053,0.162,0.077    c0.294,0.132,0.596,0.248,0.922,0.261c0.256,0.01,0.506,0.055,0.759,0.085c0.576,0.069,0.871,0.452,1.114,0.911    c-0.005,0.232,0.129,0.424,0.184,0.639c0.048,0.191,0.094,0.381,0.129,0.574c0.014,0.081-0.068,0.142-0.035,0.182    c0.078,0.096,0.049,0.196,0.024,0.282c-0.071,0.238-0.112,0.49-0.271,0.694c-0.098,0.027-0.192,0.001-0.283-0.032    c-0.048-0.017-0.103-0.056-0.1-0.103c0.011-0.156-0.108-0.296-0.048-0.461c0.031-0.015,0.065-0.032,0.129-0.062    c-0.118-0.038-0.118-0.14-0.122-0.212c-0.009-0.156-0.065-0.295-0.111-0.438c-0.083-0.255-0.155-0.52-0.373-0.711    c-0.149-0.027-0.289,0.042-0.433,0.072c-0.234,0.049-0.464,0.14-0.7,0.162c-0.497,0.046-0.997,0.034-1.478-0.131    c-0.125-0.043-0.254-0.078-0.376-0.131c-0.165-0.07-0.309-0.191-0.504-0.18c-0.029,0.002-0.059-0.025-0.088-0.041    c-0.142-0.076-0.283-0.075-0.426-0.005c-0.132,0.066-0.266,0.13-0.398,0.194c-0.013,0.04-0.036,0.071-0.026,0.118    c0.054,0.266,0.096,0.533,0.156,0.796c0.02,0.09-0.02,0.173,0.021,0.266c0.187,0.413,0.273,0.858,0.384,1.295    c0.035,0.139,0.087,0.242,0.184,0.337c0.168,0.166,0.299,0.366,0.37,0.585c0.079,0.243,0.088,0.501,0.024,0.761    c-0.032,0.134-0.028,0.278,0.015,0.419c0.112,0.365,0.146,0.744,0.157,1.122c0.003,0.124,0.031,0.24,0.041,0.361    c0.011,0.132,0.085,0.245,0.072,0.391c-0.012,0.129,0.018,0.266-0.015,0.398c-0.009,0.035-0.006,0.062,0.007,0.094    c0.074,0.179,0.156,0.357,0.231,0.536c0.048,0.116,0.112,0.233,0.152,0.355c0.035,0.109,0.049,0.228,0.058,0.343    c0.007,0.107,0.024,0.208,0.051,0.312c0.028,0.106,0.005,0.229-0.008,0.346c-0.012,0.103,0.041,0.213-0.048,0.305    c0.062,0.194-0.037,0.372-0.059,0.557c-0.028,0.229-0.097,0.434-0.356,0.5C53.355,90.586,53.354,90.599,53.35,90.607z     M54.515,14.797c-0.031-0.056-0.052-0.125-0.098-0.168c-0.106-0.102-0.184-0.251-0.34-0.279c-0.115-0.021-0.226-0.051-0.332-0.095    c-0.246-0.102-0.505-0.001-0.753-0.055c-0.027-0.006-0.062,0.02-0.092,0.034c-0.152,0.081-0.259,0.207-0.333,0.36    c-0.042,0.086-0.053,0.182,0.001,0.264c0.151,0.233,0.335,0.428,0.597,0.545c0.337,0.151,0.651,0.102,0.939-0.103    C54.279,15.175,54.421,15.008,54.515,14.797z M56.252,14.363c-0.083-0.104-0.014-0.233-0.09-0.335    c-0.243-0.333-0.552-0.565-0.95-0.676c-0.037-0.009-0.082-0.024-0.109,0.046c0.174,0.165,0.389,0.286,0.554,0.474    C55.822,14.062,56,14.251,56.252,14.363z M45.274,10.978c0.13,0.135,0.248,0.171,0.365,0.212c0.143,0.049,0.296,0.038,0.44,0.073    c0.2,0.05,0.388,0.014,0.633-0.063c-0.282-0.024-0.502-0.063-0.726-0.077C45.764,11.11,45.549,11.018,45.274,10.978z     M56.959,13.296c-0.172-0.334-0.477-0.458-0.697-0.659c-0.054,0.021-0.078,0.043-0.093,0.077    C56.36,12.98,56.611,13.164,56.959,13.296z M62.649,74.039c0.072-0.042,0.003-0.098,0.027-0.15    c0.035-0.077-0.039-0.074-0.141-0.11C62.629,73.881,62.572,73.979,62.649,74.039z M41.349,81.738    c0.07,0.018,0.121-0.042,0.184-0.017c-0.005-0.059-0.028-0.08-0.062-0.1C41.42,81.64,41.35,81.637,41.349,81.738z M25.361,66.316    c-0.068-0.125-0.068-0.125-0.105-0.11c0,0.058,0,0.115,0,0.171C25.302,66.38,25.326,66.359,25.361,66.316z M42.754,81.174    c-0.076-0.015-0.157-0.042-0.267,0.008C42.597,81.215,42.674,81.191,42.754,81.174z M25.996,66.174    c-0.023,0.104-0.012,0.155,0.055,0.189C26.085,66.292,26.019,66.26,25.996,66.174z"></path><path fill-rule="evenodd" clip-rule="evenodd"  d="M54.515,14.797c-0.093,0.211-0.235,0.377-0.411,0.502    c-0.289,0.205-0.602,0.254-0.939,0.103c-0.261-0.117-0.446-0.312-0.597-0.545c-0.054-0.083-0.042-0.178-0.001-0.264    c0.073-0.153,0.18-0.279,0.333-0.36c0.029-0.015,0.065-0.04,0.092-0.034c0.248,0.054,0.507-0.047,0.753,0.055    c0.106,0.044,0.217,0.074,0.332,0.095c0.157,0.028,0.234,0.178,0.34,0.279C54.462,14.673,54.483,14.741,54.515,14.797z"></path><path fill-rule="evenodd" clip-rule="evenodd"  d="M56.252,14.363c-0.252-0.111-0.43-0.301-0.595-0.491    c-0.165-0.188-0.38-0.309-0.554-0.474c0.027-0.071,0.072-0.056,0.109-0.046c0.397,0.111,0.707,0.343,0.95,0.676    C56.238,14.13,56.169,14.259,56.252,14.363z"></path><path fill-rule="evenodd" clip-rule="evenodd"  d="M45.274,10.978c0.275,0.04,0.489,0.132,0.713,0.145    c0.224,0.014,0.443,0.053,0.726,0.077c-0.245,0.077-0.433,0.113-0.633,0.063c-0.145-0.036-0.297-0.024-0.44-0.073    C45.522,11.149,45.404,11.113,45.274,10.978z"></path><path fill-rule="evenodd" clip-rule="evenodd"  d="M56.959,13.296c-0.348-0.133-0.6-0.316-0.79-0.582    c0.015-0.034,0.039-0.056,0.093-0.077C56.483,12.838,56.788,12.962,56.959,13.296z"></path><path fill-rule="evenodd" clip-rule="evenodd"  d="M62.649,74.039c-0.077-0.06-0.02-0.157-0.114-0.26    c0.102,0.036,0.176,0.033,0.141,0.11C62.652,73.941,62.721,73.997,62.649,74.039z"></path><path fill-rule="evenodd" clip-rule="evenodd"  d="M41.349,81.738c0-0.102,0.071-0.099,0.122-0.116    c0.033,0.02,0.056,0.041,0.062,0.1C41.47,81.696,41.419,81.756,41.349,81.738z"></path><path fill-rule="evenodd" clip-rule="evenodd"  d="M25.529,66.34c-0.002-0.07-0.025-0.145,0.044-0.208    c0.031,0.088,0.031,0.088,0.02,0.197c-0.023,0.001-0.048,0.002-0.072,0.004L25.529,66.34z"></path><path fill-rule="evenodd" clip-rule="evenodd"  d="M25.361,66.316c-0.035,0.043-0.06,0.064-0.105,0.061    c0-0.056,0-0.113,0-0.171C25.293,66.191,25.293,66.191,25.361,66.316z"></path><path fill-rule="evenodd" clip-rule="evenodd"  d="M42.754,81.174c-0.08,0.017-0.157,0.041-0.267,0.008    C42.597,81.132,42.678,81.159,42.754,81.174z"></path><path fill-rule="evenodd" clip-rule="evenodd"  d="M25.996,66.174c0.023,0.086,0.09,0.117,0.055,0.189    C25.984,66.33,25.972,66.279,25.996,66.174z"></path><path fill-rule="evenodd" clip-rule="evenodd" d="M70.104,81.337c0.052,0.15,0.168,0.272,0.074,0.425    c0.016,0.036,0.042,0.003,0.064,0.01c0.004,0.013,0.019,0.032,0.014,0.042c-0.085,0.207,0.016,0.407,0.025,0.61    c0.004,0.071,0.028,0.146,0.028,0.221c0,0.408,0.007,0.814,0.097,1.215c0.02,0.088-0.005,0.181-0.018,0.271    c-0.045,0.324-0.134,0.624-0.389,0.857c-0.102,0.094-0.172,0.222-0.274,0.356c-0.035,0.035-0.134-0.02-0.183,0.058    c-0.007,0.015-0.024,0.034-0.02,0.043c0.052,0.11-0.007,0.22-0.075,0.262c-0.08,0.05-0.149,0.145-0.268,0.133    c-0.073-0.007-0.15,0.01-0.224,0.001c-0.09-0.009-0.178-0.036-0.268-0.055c0.021-0.072,0.071-0.089,0.133-0.09    c0.041-0.001,0.084-0.004,0.124-0.013c0.138-0.029,0.272-0.065,0.316-0.274c0.063,0.078,0.098,0.12,0.132,0.163    c0.073-0.065,0.082-0.181,0.055-0.241c-0.078-0.177-0.001-0.265,0.136-0.346c0.01-0.005,0.011-0.026,0.018-0.042    c-0.035-0.042-0.076,0.026-0.124-0.022c-0.032-0.272,0.077-0.577-0.083-0.855c-0.049-0.009-0.097-0.019-0.161-0.031    c0.122-0.163-0.193-0.198-0.093-0.36c-0.089-0.077-0.162-0.169-0.23-0.284c-0.075,0.099-0.054,0.198-0.037,0.277    c0.068,0.298-0.042,0.589-0.017,0.886c0.004,0.053-0.032,0.092-0.058,0.134c-0.042,0.071-0.097,0.141-0.118,0.219    c-0.037,0.139-0.117,0.241-0.227,0.316c-0.096,0.065-0.116,0.145-0.109,0.25c0.012,0.175,0.018,0.35,0.02,0.524    c0.002,0.275-0.048,0.543-0.128,0.805c-0.061,0.194-0.137,0.387-0.179,0.583c-0.061,0.288-0.209,0.525-0.35,0.771    c-0.044,0.078-0.11,0.144-0.202,0.261c0.061-0.306-0.043-0.571,0.073-0.828c0.015-0.033,0.025-0.097,0.007-0.112    c-0.117-0.1-0.059-0.207-0.032-0.318c0.016-0.063,0.025-0.136,0.009-0.198c-0.026-0.102-0.006-0.187,0.032-0.283    c0.031-0.082,0.038-0.178-0.037-0.256c-0.06-0.062-0.068-0.139-0.073-0.225c-0.016-0.289-0.043-0.576,0.004-0.865    c0.018-0.104-0.022-0.209-0.06-0.311c0.027-0.059,0.053-0.117,0.076-0.167c-0.02-0.075-0.093-0.038-0.125-0.08    c0.038-0.016,0.074-0.029,0.11-0.044c-0.016-0.067-0.086-0.074-0.138-0.123c0.141-0.149,0.167-0.335,0.211-0.551    c-0.051,0.054-0.077,0.088-0.109,0.114c-0.042,0.034-0.088,0.039-0.137-0.006c0.045-0.092,0.166-0.146,0.139-0.267    c-0.031-0.056-0.071-0.037-0.126-0.013c0-0.111,0.064-0.206,0.037-0.305c0.049-0.022,0.084-0.039,0.121-0.055    c-0.016-0.058-0.065-0.074-0.106-0.089c-0.034-0.103-0.002-0.184,0.029-0.273c0.158-0.444,0.159-0.896,0.056-1.353    c-0.012-0.049-0.021-0.095-0.053-0.137c-0.078-0.102-0.111-0.221-0.111-0.348c-0.037-0.001-0.062,0.001-0.089-0.03    c-0.061-0.07-0.076-0.169-0.161-0.221s-0.074-0.158-0.119-0.233c-0.046-0.079-0.091-0.157-0.138-0.236    c-0.029-0.049-0.077-0.097-0.059-0.156c0.02-0.065,0.004-0.093-0.059-0.105c-0.037-0.007-0.054-0.032-0.06-0.069    c-0.024-0.17-0.164-0.284-0.216-0.441c-0.021-0.062-0.074-0.086-0.163-0.077c0.088,0.385,0.046,0.788,0.196,1.178    c-0.128,0.154-0.197,0.344-0.231,0.552c-0.017,0.102-0.042,0.218-0.203,0.235c0.133,0.154-0.061,0.308,0.059,0.454    c-0.046,0.004-0.071-0.021-0.094,0.029c0.07,0.161-0.001,0.324-0.053,0.488c-0.125,0.403-0.262,0.803-0.375,1.21    c-0.114,0.408-0.29,0.782-0.52,1.141c-0.042-0.001-0.084,0-0.123-0.008c-0.022-0.005-0.04-0.027-0.058-0.041    c0.01-0.103,0.117-0.135,0.152-0.22c-0.076-0.012-0.09-0.086-0.134-0.13c-0.092-0.09,0.015-0.118,0.033-0.176    c0.057-0.188,0.039-0.383,0.016-0.573c-0.029-0.237-0.039-0.477,0.025-0.703c0.041-0.147,0.062-0.296,0.068-0.439    c0.011-0.225,0.084-0.441,0.066-0.668c-0.006-0.084,0.02-0.16,0.088-0.214c-0.16-0.135-0.121-0.312-0.145-0.465    c-0.022-0.088-0.125-0.045-0.177-0.137c-0.026-0.064-0.015-0.164-0.016-0.262c-0.003-0.201-0.016-0.395-0.159-0.561    c-0.067-0.078-0.091-0.193-0.128-0.288c-0.106-0.275-0.333-0.449-0.503-0.669c-0.139-0.18-0.242-0.37-0.308-0.585    c-0.027-0.091,0.068-0.196-0.035-0.277c-0.044-0.312-0.218-0.567-0.365-0.833c-0.092-0.164-0.127-0.363-0.318-0.494    c-0.034-0.005-0.072,0.043-0.119,0.072c-0.054,0.096,0.04,0.244-0.115,0.305c0.012,0.042,0.023,0.08,0.035,0.124    c-0.054,0.032-0.124-0.049-0.174,0.021c-0.03,0.067,0.059,0.091,0.059,0.151c-0.056,0.007-0.113,0.07-0.15-0.037    c-0.034-0.096-0.104-0.018-0.149-0.029c-0.03,0.05-0.01,0.078,0,0.106c-0.117,0.13-0.29,0.155-0.434,0.234    c-0.137,0.075-0.267,0.162-0.416,0.253c-0.028-0.173,0.046-0.318,0.028-0.457c0.07-0.104,0.197-0.074,0.276-0.168    c0.002-0.063-0.104-0.096-0.083-0.178c0.023-0.086-0.069-0.126-0.095-0.218c0.054-0.064,0.116-0.138,0.179-0.212    c-0.062-0.132,0.07-0.159,0.125-0.226c0.021-0.023,0.004-0.045,0.012-0.064c0.106-0.314,0.292-0.584,0.5-0.855    c-0.014-0.057,0-0.126,0.021-0.191c-0.045-0.103-0.172-0.098-0.237-0.188c0.068-0.121,0.159-0.21,0.28-0.275    c0.335-0.178,0.687-0.294,1.07-0.278c0.277,0.011,0.545-0.042,0.822-0.069c0.09,0.112,0.253,0.122,0.36,0.222    c0.023,0.022,0.068,0.027,0.082,0.052c0.098,0.172,0.267,0.269,0.406,0.396c0.068,0.062,0.137,0.121,0.179,0.206    c0.125,0.253,0.268,0.496,0.437,0.724c0.044,0.06,0.079,0.127,0.074,0.195c0.308,0.151,0.562,0.348,0.802,0.567    c0.308,0.28,0.649,0.517,1.012,0.721c0.095,0.053,0.178,0.117,0.257,0.193c0.086,0.086,0.184,0.155,0.292,0.22    c0.188,0.111,0.33,0.294,0.422,0.497c0.153,0.331,0.353,0.636,0.506,0.968c0.089,0.193,0.239,0.354,0.428,0.475    c0.169,0.108,0.341,0.218,0.41,0.433c0.021,0.066,0.125,0.102,0.149,0.187C70.272,81.264,70.245,81.297,70.104,81.337z"></path></g></g></svg>